<svg xmlns="http://www.w3.org/2000/svg" width="26.314" height="24"><path d="M26.303 12.866h-2.55q-.018 1.285-.093 2.568h-1.717c.01-.155.025-.303.034-.463.04-.668.066-1.373.078-2.105h-2.537v-1.713h2.538q-.016-1.01-.074-2.02c-.012-.19-.027-.365-.04-.549h1.717l.005.069c.046.794.076 1.631.088 2.5h2.55zm-5.146-8.994a1.973 1.973 0 0 0-.094-.207l-.02-.041a1.65 1.65 0 0 0-.155-.242 2.171 2.171 0 0 0-1.098-.795 27.984 27.984 0 0 0-7.905-.855 27.91 27.91 0 0 0-7.912.858 2.165 2.165 0 0 0-.572.28l-.062.047a2.198 2.198 0 0 0-.451.456 1.689 1.689 0 0 0-.267.476 27.062 27.062 0 0 0-.913 8.162 26.919 26.919 0 0 0 .922 8.183l.008.016a1.71 1.71 0 0 0 .259.45 2.195 2.195 0 0 0 .428.431 1.614 1.614 0 0 0 .414.248l.077.034a9.774 9.774 0 0 0 2.012.501c.632.104 2.592.339 3.626.393.823.044 2.85 0 3.76 0a13.863 13.863 0 0 0 1.682-.075 18.995 18.995 0 0 0 5.048-.816l.098-.041a1.629 1.629 0 0 0 .396-.239 2.176 2.176 0 0 0 .441-.444 1.751 1.751 0 0 0 .242-.415l.03-.07a10.384 10.384 0 0 0 .52-2.165h1.767l-.003.027a14.939 14.939 0 0 1-.741 3.498q-.016.041-.034.081a1.911 1.911 0 0 1-.283.485 2.58 2.58 0 0 1-.514.518 1.937 1.937 0 0 1-.46.277l-.117.05a22.198 22.198 0 0 1-5.889.951 16.183 16.183 0 0 1-1.962.088c-1.06 0-3.426.052-4.386 0-1.207-.064-3.493-.338-4.23-.459a11.208 11.208 0 0 1-2.348-.585l-.088-.04a1.857 1.857 0 0 1-.485-.288A2.515 2.515 0 0 1 1.4 22.1a1.966 1.966 0 0 1-.314-.545C.457 20.05.011 16.346.011 12.012c0-4.313.442-8.003 1.067-9.525l.029-.069a2.022 2.022 0 0 1 .28-.484 2.558 2.558 0 0 1 .6-.587l.017-.01a2.527 2.527 0 0 1 .65-.317 32.582 32.582 0 0 1 9.23-1 32.597 32.597 0 0 1 9.223.998 2.424 2.424 0 0 1 .484.21 1.706 1.706 0 0 1 .165.101c.03.02.058.042.085.062l.007.005a2.545 2.545 0 0 1 .541.549.94.94 0 0 1 .06.08 1.551 1.551 0 0 1 .122.201l.023.049a2.26 2.26 0 0 1 .108.242 14.933 14.933 0 0 1 .728 3.441l.005.056H21.67a10.486 10.486 0 0 0-.512-2.142zM9.477 16.13H8.069V9.732l-1.312 1.404-.816-.882 2.31-2.41h1.226zm4.433-1.143c.89 0 1.647-.447 1.647-1.166 0-.858-1.154-1.243-1.647-1.306-.505.063-1.66.448-1.66 1.306 0 .72.746 1.166 1.66 1.166zm0-3.701c.493-.087 1.516-.384 1.516-1.168 0-.696-.663-1.106-1.515-1.106-.878 0-1.528.41-1.528 1.106 0 .784 1.034 1.08 1.528 1.168zm0 4.993c-1.647 0-3.079-.782-3.079-2.273a2.398 2.398 0 0 1 1.805-2.15 2.101 2.101 0 0 1-1.672-1.961c0-1.528 1.515-2.175 2.947-2.175 1.407 0 2.946.647 2.946 2.176a2.112 2.112 0 0 1-1.683 1.96 2.396 2.396 0 0 1 1.802 2.15c0 1.48-1.43 2.274-3.066 2.274z" fill-opacity=".3"/></svg>