<svg xmlns="http://www.w3.org/2000/svg" xmlns:xlink="http://www.w3.org/1999/xlink" width="32" height="32"><defs><path id="a" d="M0 .23h4.209v5.996H0z"/><path id="c" d="M.17.23h4.382v5.996H.17z"/><path id="e" d="M.546.23h4.497v5.996H.546z"/><path id="g" d="M.373.214h4.728v7.88H.373z"/></defs><g fill="none" fill-rule="evenodd" opacity=".4"><path fill="#1D1D1B" d="M5.01 0v19.34h10.712v-6.376l-2.046 1.2a1.382 1.382 0 0 1-2.506 1.13 1.382 1.382 0 0 1 2.193-1.655l2.068-1.214-2.06-1.183a1.388 1.388 0 0 1-1.717.273 1.382 1.382 0 1 1 1.377-2.398c.567.324.816.989.64 1.59l2.051 1.178V9.519a1.383 1.383 0 1 1 .611.006v2.372l2.066-1.211a1.384 1.384 0 1 1 .304.53l-2.05 1.204 2.082 1.194a1.381 1.381 0 0 1 1.696-.251 1.38 1.38 0 0 1 .51 1.887 1.382 1.382 0 0 1-2.517-1.109l-1.98-1.136v6.336h10.433V0H5.01z"/><g transform="translate(3 23.614)"><mask id="b" fill="#fff"><use xlink:href="#a"/></mask><path fill="#1D1D1B" d="M2.133.23c.75 0 1.441.173 2.018.576l-.289.692h-.057a2.993 2.993 0 0 0-1.614-.46c-.693 0-1.038.346-1.038.807 0 1.095 3.056.69 3.056 2.767 0 .865-.75 1.614-2.191 1.614-.75 0-1.442-.172-2.018-.576l.288-.692h.057c.347.23.924.461 1.615.461.75 0 1.096-.346 1.096-.807C3.056 3.516 0 3.92 0 1.845 0 .979.75.23 2.133.23" mask="url(#b)"/></g><g transform="translate(7.98 23.614)"><mask id="d" fill="#fff"><use xlink:href="#c"/></mask><path fill="#1D1D1B" d="M2.591.23c.693 0 1.384.173 1.904.576l-.289.692h-.058c-.288-.23-.864-.46-1.326-.46-.922 0-1.499.576-1.499 2.19 0 1.615.577 2.191 1.441 2.191.52 0 1.096-.23 1.442-.46h.058l.288.69c-.577.405-1.268.577-2.018.577C1.093 6.226.17 5.303.17 3.228S1.093.23 2.591.23" mask="url(#d)"/></g><path fill="#1D1D1B" d="M16.69 27.072h-.808c-.98 0-1.47.405-1.47.981 0 .577.49.98 1.067.98.576 0 1.038-.46 1.21-.807v-1.154zm-2.71-1.96h-.058l-.288-.692a3.94 3.94 0 0 1 2.018-.576c1.441 0 2.19.75 2.19 2.422v3.46h-.749l-.173-.693h-.057c-.289.346-.75.807-1.73.807-1.096 0-1.787-.691-1.787-1.787s.69-1.787 2.536-1.787h.807c0-1.153-.46-1.615-1.268-1.615-.519 0-1.095.231-1.441.462z"/><g transform="translate(24.168 23.614)"><mask id="f" fill="#fff"><use xlink:href="#e"/></mask><path fill="#1D1D1B" d="M3.89 3.458h-.808c-.98 0-1.47.404-1.47.981 0 .576.49.98 1.067.98.576 0 1.038-.46 1.21-.807V3.458zm-2.71-1.96h-.057L.834.806A3.94 3.94 0 0 1 2.852.23c1.441 0 2.191.75 2.191 2.421v3.46h-.75L4.12 5.42h-.057c-.289.345-.75.807-1.73.807-1.096 0-1.787-.691-1.787-1.787s.691-1.788 2.536-1.788h.807c0-1.153-.46-1.614-1.268-1.614-.518 0-1.095.231-1.441.461z" mask="url(#f)"/></g><g transform="translate(18.565 21.746)"><mask id="h" fill="#fff"><use xlink:href="#g"/></mask><path fill="#1D1D1B" d="M3.948 6.48c-.173.346-.635.807-1.154.807-.691 0-1.268-.577-1.268-2.192 0-1.613.577-2.19 1.327-2.19.403 0 .806.115 1.095.346V6.48zM5.013.214L4.036.47a.087.087 0 0 0-.088.087v1.887c-.346-.231-.808-.346-1.384-.346-1.21 0-2.19.98-2.19 2.997 0 2.076.921 2.999 2.132 2.999.865 0 1.327-.461 1.615-.807h.057l.173.692h.75V.303a.09.09 0 0 0-.088-.089z" mask="url(#h)"/></g></g></svg>